HIERARCHY
ROOT Hips
{
	OFFSET 0.000000 83.214638 0.000000
	CHANNELS 6 Xposition Yposition Zposition Xrotation Yrotation Zrotation
	JOINT Pelvis
	{
		OFFSET 0.000000 0.000000 0.000000
		CHANNELS 3 Xrotation Yrotation Zrotation
		JOINT LeftUpLeg
		{
			OFFSET 8.479700 -4.795502 -0.379100
			CHANNELS 3 Xrotation Yrotation Zrotation
			JOINT LeftLeg
			{
				OFFSET 0.024144 -32.555107 0.112900
				CHANNELS 3 Xrotation Yrotation Zrotation
				JOINT LeftFoot
				{
					OFFSET -0.024144 -32.638630 -3.012600
					CHANNELS 3 Xrotation Yrotation Zrotation
					JOINT LeftToeBase
					{
						OFFSET 0.970200 -13.225400 11.864200
						CHANNELS 3 Xrotation Yrotation Zrotation
						End Site
						{
							OFFSET 0.000000 12.319262 0.000000
						}
					}
					JOINT LFootTongue
					{
						OFFSET 1.142400 -1.059800 6.665200
						CHANNELS 3 Xrotation Yrotation Zrotation
						End Site
						{
							OFFSET 0.000000 12.319262 0.000000
						}
					}
				}
				JOINT LeftPantLeg
				{
					OFFSET 0.918482 -16.533964 -2.284700
					CHANNELS 3 Xrotation Yrotation Zrotation
					End Site
					{
						OFFSET 0.350399 24.744368 0.000000
					}
				}
			}
		}
		JOINT RightUpLeg
		{
			OFFSET -8.479700 -4.795502 -0.379100
			CHANNELS 3 Xrotation Yrotation Zrotation
			JOINT RightLeg
			{
				OFFSET -0.023144 -32.555092 0.112900
				CHANNELS 3 Xrotation Yrotation Zrotation
				JOINT RightFoot
				{
					OFFSET 0.023144 -32.638641 -3.012700
					CHANNELS 3 Xrotation Yrotation Zrotation
					JOINT RightToeBase
					{
						OFFSET -0.970200 -13.225400 11.864200
						CHANNELS 3 Xrotation Yrotation Zrotation
						End Site
						{
							OFFSET 0.000000 12.319244 0.000000
						}
					}
					JOINT RFootTongue
					{
						OFFSET -1.142200 -1.059800 6.665200
						CHANNELS 3 Xrotation Yrotation Zrotation
						End Site
						{
							OFFSET 0.000000 12.319243 0.000000
						}
					}
				}
				JOINT RightPantLeg
				{
					OFFSET -0.919482 -16.533978 -2.284800
					CHANNELS 3 Xrotation Yrotation Zrotation
					End Site
					{
						OFFSET -0.350400 24.744419 0.000000
					}
				}
			}
		}
	}
	JOINT Spine
	{
		OFFSET 0.000000 7.722000 1.166200
		CHANNELS 3 Xrotation Yrotation Zrotation
		JOINT Spine1
		{
			OFFSET 0.000000 12.024101 0.248800
			CHANNELS 3 Xrotation Yrotation Zrotation
			JOINT Spine2
			{
				OFFSET 0.000000 11.502998 -0.491200
				CHANNELS 3 Xrotation Yrotation Zrotation
				JOINT Neck
				{
					OFFSET 0.000000 18.430702 -3.123100
					CHANNELS 3 Xrotation Yrotation Zrotation
					JOINT Head
					{
						OFFSET 0.000000 9.051102 1.034000
						CHANNELS 3 Xrotation Yrotation Zrotation
						JOINT HairB
						{
							OFFSET 0.208400 24.786102 24.822300
							CHANNELS 3 Xrotation Yrotation Zrotation
							End Site
							{
								OFFSET 0.000000 32.263779 0.000000
							}
						}
						JOINT HairA
						{
							OFFSET -7.081100 24.428299 23.196600
							CHANNELS 3 Xrotation Yrotation Zrotation
							End Site
							{
								OFFSET 0.000000 32.263779 0.000000
							}
						}
						JOINT Hat
						{
							OFFSET 16.728800 15.048294 -15.439601
							CHANNELS 3 Xrotation Yrotation Zrotation
							End Site
							{
								OFFSET 0.000000 32.263779 0.000000
							}
						}
					}
				}
				JOINT LeftShoulder
				{
					OFFSET 6.197800 13.665199 -4.064700
					CHANNELS 3 Xrotation Yrotation Zrotation
					JOINT LeftArm
					{
						OFFSET 7.778100 -0.187103 -1.709300
						CHANNELS 3 Xrotation Yrotation Zrotation
						JOINT LeftForeArm
						{
							OFFSET 22.049376 0.000000 0.000000
							CHANNELS 3 Xrotation Yrotation Zrotation
							JOINT LeftHand
							{
								OFFSET 23.009392 0.000000 0.000000
								CHANNELS 3 Xrotation Yrotation Zrotation
								JOINT LeftHandThumb1
								{
									OFFSET 3.507191 -2.063065 3.133727
									CHANNELS 3 Xrotation Yrotation Zrotation
									JOINT LeftHandThumb2
									{
										OFFSET 3.101337 -1.790558 1.790558
										CHANNELS 3 Xrotation Yrotation Zrotation
										JOINT LeftHandThumb3
										{
											OFFSET 3.058640 -1.765907 1.765906
											CHANNELS 3 Xrotation Yrotation Zrotation
											End Site
											{
												OFFSET -0.415260 3.926476 -0.049563
											}
										}
									}
								}
								JOINT LeftHandIndex1
								{
									OFFSET 11.334419 -0.901459 3.706815
									CHANNELS 3 Xrotation Yrotation Zrotation
									JOINT LeftHandIndex2
									{
										OFFSET 3.283112 0.000000 0.000000
										CHANNELS 3 Xrotation Yrotation Zrotation
										JOINT LeftHandIndex3
										{
											OFFSET 3.323853 0.000000 0.000000
											CHANNELS 3 Xrotation Yrotation Zrotation
											End Site
											{
												OFFSET -1.135597 3.097809 0.402452
											}
										}
									}
								}
								JOINT LeftHandMiddle1
								{
									OFFSET 11.335861 0.000000 0.000000
									CHANNELS 3 Xrotation Yrotation Zrotation
									JOINT LeftHandMiddle2
									{
										OFFSET 3.410492 0.000000 0.000000
										CHANNELS 3 Xrotation Yrotation Zrotation
										JOINT LeftHandMiddle3
										{
											OFFSET 3.312172 0.000000 0.000000
											CHANNELS 3 Xrotation Yrotation Zrotation
											End Site
											{
												OFFSET -1.150200 3.080154 0.400270
											}
										}
									}
								}
								JOINT LeftHandRing1
								{
									OFFSET 11.514786 -0.013176 -3.003090
									CHANNELS 3 Xrotation Yrotation Zrotation
									JOINT LeftHandRing2
									{
										OFFSET 3.053307 0.000000 0.000000
										CHANNELS 3 Xrotation Yrotation Zrotation
										JOINT LeftHandRing3
										{
											OFFSET 3.295807 0.000000 0.000000
											CHANNELS 3 Xrotation Yrotation Zrotation
											End Site
											{
												OFFSET -1.281006 3.013344 0.375733
											}
										}
									}
								}
								JOINT LeftHandPinky1
								{
									OFFSET 10.518692 -0.960396 -5.730441
									CHANNELS 3 Xrotation Yrotation Zrotation
									JOINT LeftHandPinky2
									{
										OFFSET 2.861649 0.000000 0.000000
										CHANNELS 3 Xrotation Yrotation Zrotation
										JOINT LeftHandPinky3
										{
											OFFSET 2.863380 0.000000 0.000000
											CHANNELS 3 Xrotation Yrotation Zrotation
											End Site
											{
												OFFSET -0.843597 2.711159 0.369971
											}
										}
									}
								}
							}
							JOINT LSleeve
							{
								OFFSET 6.676277 -0.344902 -1.011730
								CHANNELS 3 Xrotation Yrotation Zrotation
								End Site
								{
									OFFSET 0.000000 14.885353 0.000000
								}
							}
						}
					}
				}
				JOINT RightShoulder
				{
					OFFSET -6.197800 13.665199 -4.064700
					CHANNELS 3 Xrotation Yrotation Zrotation
					JOINT RightArm
					{
						OFFSET -7.778100 -0.187103 -1.709300
						CHANNELS 3 Xrotation Yrotation Zrotation
						JOINT RightForeArm
						{
							OFFSET -22.049376 0.000000 0.000000
							CHANNELS 3 Xrotation Yrotation Zrotation
							JOINT RightHand
							{
								OFFSET -23.009392 0.000000 0.000000
								CHANNELS 3 Xrotation Yrotation Zrotation
								JOINT RightHandThumb1
								{
									OFFSET -3.507191 -2.063065 3.133727
									CHANNELS 3 Xrotation Yrotation Zrotation
									JOINT RightHandThumb2
									{
										OFFSET -3.101337 -1.790558 1.790558
										CHANNELS 3 Xrotation Yrotation Zrotation
										JOINT RightHandThumb3
										{
											OFFSET -3.058640 -1.765907 1.765906
											CHANNELS 3 Xrotation Yrotation Zrotation
											End Site
											{
												OFFSET 0.415260 3.926476 -0.049563
											}
										}
									}
								}
								JOINT RightHandIndex1
								{
									OFFSET -11.334419 -0.901459 3.706815
									CHANNELS 3 Xrotation Yrotation Zrotation
									JOINT RightHandIndex2
									{
										OFFSET -3.283112 0.000000 0.000000
										CHANNELS 3 Xrotation Yrotation Zrotation
										JOINT RightHandIndex3
										{
											OFFSET -3.323853 0.000000 0.000000
											CHANNELS 3 Xrotation Yrotation Zrotation
											End Site
											{
												OFFSET 1.135597 3.097809 0.402452
											}
										}
									}
								}
								JOINT RightHandMiddle1
								{
									OFFSET -11.335861 0.000000 0.000000
									CHANNELS 3 Xrotation Yrotation Zrotation
									JOINT RightHandMiddle2
									{
										OFFSET -3.410492 0.000000 0.000000
										CHANNELS 3 Xrotation Yrotation Zrotation
										JOINT RightHandMiddle3
										{
											OFFSET -3.312172 0.000000 0.000000
											CHANNELS 3 Xrotation Yrotation Zrotation
											End Site
											{
												OFFSET 1.150200 3.080154 0.400270
											}
										}
									}
								}
								JOINT RightHandRing1
								{
									OFFSET -11.514786 -0.013176 -3.003090
									CHANNELS 3 Xrotation Yrotation Zrotation
									JOINT RightHandRing2
									{
										OFFSET -3.053307 0.000000 0.000000
										CHANNELS 3 Xrotation Yrotation Zrotation
										JOINT RightHandRing3
										{
											OFFSET -3.295807 0.000000 0.000000
											CHANNELS 3 Xrotation Yrotation Zrotation
											End Site
											{
												OFFSET 1.281006 3.013344 0.375733
											}
										}
									}
								}
								JOINT RightHandPinky1
								{
									OFFSET -10.518692 -0.960396 -5.730441
									CHANNELS 3 Xrotation Yrotation Zrotation
									JOINT RightHandPinky2
									{
										OFFSET -2.861649 0.000000 0.000000
										CHANNELS 3 Xrotation Yrotation Zrotation
										JOINT RightHandPinky3
										{
											OFFSET -2.863380 0.000000 0.000000
											CHANNELS 3 Xrotation Yrotation Zrotation
											End Site
											{
												OFFSET 0.843597 2.711159 0.369971
											}
										}
									}
								}
							}
							JOINT RSleeve
							{
								OFFSET -6.676277 -0.344902 -1.011730
								CHANNELS 3 Xrotation Yrotation Zrotation
								End Site
								{
									OFFSET 0.000000 14.885353 0.000000
								}
							}
						}
					}
				}
				JOINT Backpack
				{
					OFFSET 0.000000 -2.471497 36.677502
					CHANNELS 3 Xrotation Yrotation Zrotation
					End Site
					{
						OFFSET 0.000000 20.427315 0.000000
					}
				}
				JOINT Hood
				{
					OFFSET 0.000000 18.754097 -10.431000
					CHANNELS 3 Xrotation Yrotation Zrotation
					JOINT Hood1
					{
						OFFSET 0.000000 -5.011002 -7.685901
						CHANNELS 3 Xrotation Yrotation Zrotation
						End Site
						{
							OFFSET 0.000000 9.175140 0.000000
						}
					}
				}
				JOINT LHoodieString
				{
					OFFSET 5.250500 16.397697 3.089900
					CHANNELS 3 Xrotation Yrotation Zrotation
					JOINT LHoodieString1
					{
						OFFSET 0.257700 -6.364304 3.694600
						CHANNELS 3 Xrotation Yrotation Zrotation
						JOINT LHoodieString2
						{
							OFFSET 0.000000 -9.643799 2.679100
							CHANNELS 3 Xrotation Yrotation Zrotation
							End Site
							{
								OFFSET 0.000000 10.009018 0.000000
							}
						}
					}
				}
				JOINT RHoodieString
				{
					OFFSET -5.250500 16.397697 3.089900
					CHANNELS 3 Xrotation Yrotation Zrotation
					JOINT RHoodieString1
					{
						OFFSET -0.257700 -6.364304 3.694600
						CHANNELS 3 Xrotation Yrotation Zrotation
						JOINT RHoodieString2
						{
							OFFSET 0.000000 -9.643799 2.679100
							CHANNELS 3 Xrotation Yrotation Zrotation
							End Site
							{
								OFFSET 0.000000 10.009018 0.000000
							}
						}
					}
				}
			}
			JOINT LBackpack_Strap
			{
				OFFSET 15.223200 -7.719803 -6.610900
				CHANNELS 3 Xrotation Yrotation Zrotation
				End Site
				{
					OFFSET 0.000000 16.040596 0.000000
				}
			}
			JOINT RBackpack_Strap
			{
				OFFSET -15.223000 -7.719803 -6.610900
				CHANNELS 3 Xrotation Yrotation Zrotation
				End Site
				{
					OFFSET 0.000000 16.040596 0.000000
				}
			}
		}
	}
	JOINT BoyFacialAnim_Joint
	{
		OFFSET 1.000000 -82.208099 -1.550900
		CHANNELS 3 Xrotation Yrotation Zrotation
		End Site
		{
			OFFSET 0.000000 30.012791 0.000000
		}
	}
}
MOTION
Frames: 4
Frame Time: 0.016667
0.182463 74.032303 -2.446829 -23.091401 -5.572993 -1.654489 -0.000001 -0.000001 -0.000000 -91.181147 8.642921 31.906197 123.980665 -20.816210 0.208744 -29.366207 -3.948632 12.851783 -0.000000 -0.000000 -0.000000 -0.000000 -0.000000 -0.000000 -0.000001 -0.000000 0.000000 -108.503094 -5.140432 -37.236542 128.565061 23.496816 -1.658384 -23.832876 0.225793 -1.301061 -0.000002 0.000002 -0.000001 -0.000002 0.000002 -0.000001 0.000001 -0.000000 -0.000000 7.685001 -1.060431 -0.525892 15.374076 -1.676404 -0.551058 15.374078 -1.676406 -0.551059 -11.803037 2.538409 0.513533 -20.543592 1.060038 1.922753 0.000001 0.000000 0.000000 0.000001 0.000000 0.000000 0.000001 0.000000 0.000000 -0.117974 -1.799430 36.289430 -52.783227 -25.523901 -11.661713 -14.599475 -27.801856 2.187909 12.414560 -2.032449 43.220467 -11.360186 -10.015406 28.397688 19.621129 23.755263 -10.341700 -0.000000 -0.000001 0.000001 -7.847192 -3.444979 -67.091227 -4.891789 2.725202 -36.316474 0.000001 0.000000 -0.000002 -10.129921 -3.870867 -67.774273 -1.764494 1.724517 -28.158833 0.000002 -0.000000 -0.000002 -15.177611 7.295147 -70.201641 7.766217 -0.421217 -31.520053 0.000000 -0.000001 -0.000002 -16.484552 5.444204 -74.872588 8.342038 -0.189837 -18.882669 -0.000000 -0.000001 -0.000000 0.000000 -0.000000 0.000002 9.813663 24.196314 -37.946059 -46.242194 23.161329 -4.673695 -22.075477 26.224108 3.020031 0.654820 10.544262 -45.154599 15.333563 1.500902 -10.491440 -10.396762 -3.067644 -10.223945 -0.000000 0.000001 -0.000002 0.919884 3.496406 64.452199 1.728448 9.563290 38.865965 -0.000001 0.000002 0.000000 -6.652410 -3.924324 64.485708 9.406005 5.988776 38.253642 -0.000002 0.000002 0.000000 -5.546342 1.390174 64.784802 0.228423 -1.796032 39.151611 -0.000001 0.000002 0.000002 -17.806361 -16.572319 61.043320 25.318646 3.855936 27.748793 -0.000000 0.000001 0.000001 -0.000001 0.000000 -0.000003 -0.000000 -0.000000 -0.000000 -0.000000 -0.000000 -0.000000 -0.000000 -0.000000 -0.000000 -0.000000 -0.000000 -0.000000 -0.000000 -0.000000 0.000000 -0.000000 -0.000000 0.000000 -0.000000 -0.000000 -0.000000 -0.000000 -0.000000 0.000000 -0.000000 -0.000000 0.000000 0.000000 -0.000000 0.000000 0.000000 -0.000000 0.000000 -0.000001 -0.000001 -0.000000 
0.165256 73.806694 -2.408575 -22.807091 -5.560769 -1.664714 0.000002 0.000000 0.000000 -91.737015 8.407021 31.663278 124.275155 -20.581004 0.216396 -29.689220 -3.862640 12.652852 -0.000001 0.000000 -0.000001 -0.000001 0.000000 -0.000000 0.000001 0.000001 0.000003 -108.892060 -4.900470 -36.753251 128.765117 23.514451 -1.641902 -24.319981 0.087213 -1.005755 -0.000001 0.000001 -0.000000 -0.000001 0.000001 -0.000000 -0.000000 0.000001 -0.000001 7.634695 -1.023238 -0.484248 15.273326 -1.606445 -0.492266 15.273329 -1.606443 -0.492267 -14.761856 2.627877 0.599233 -18.644388 1.325023 1.660059 -0.000001 0.000000 -0.000000 -0.000001 0.000000 -0.000000 -0.000001 0.000000 -0.000000 -0.463117 -1.070545 36.646110 -52.830861 -25.294844 -12.145892 -14.734629 -28.465341 2.458224 11.791898 -2.162985 40.907570 -11.360192 -10.015420 28.397714 19.621137 23.755244 -10.341693 -0.000000 -0.000000 -0.000001 -7.847192 -3.444982 -67.091220 -4.891816 2.725210 -36.316478 -0.000000 0.000001 -0.000000 -10.129895 -3.870886 -67.774273 -1.764527 1.724345 -28.158824 -0.000000 0.000000 -0.000002 -15.177613 7.295101 -70.201641 7.766216 -0.421200 -31.520070 -0.000001 0.000000 -0.000000 -16.484516 5.444123 -74.872581 8.341971 -0.189796 -18.882674 0.000002 0.000001 -0.000000 -0.000000 -0.000000 0.000005 9.574047 23.264849 -38.203417 -46.458195 23.286055 -4.045076 -21.711693 26.550178 2.475556 0.014069 10.416155 -45.533319 15.333560 1.500882 -10.491455 -10.396765 -3.067646 -10.223944 0.000000 0.000001 -0.000002 0.919899 3.496410 64.452179 1.728502 9.563353 38.865952 -0.000003 0.000000 0.000002 -6.652433 -3.924329 64.485687 9.406023 5.988744 38.253639 0.000003 0.000000 -0.000002 -5.546349 1.390160 64.784788 0.228517 -1.795953 39.151621 -0.000003 0.000000 0.000002 -17.806365 -16.572308 61.043306 25.318820 3.856018 27.748770 -0.000001 -0.000001 0.000000 -0.000000 -0.000000 -0.000001 0.000001 0.000000 -0.000000 0.000001 0.000000 -0.000000 0.000001 0.000000 -0.000000 0.000001 0.000000 -0.000000 0.000001 0.000000 0.000000 -0.000000 0.000000 -0.000000 0.000001 0.000000 -0.000000 0.000001 0.000000 0.000000 -0.000000 0.000000 -0.000000 0.000000 0.000001 -0.000000 0.000000 0.000001 -0.000000 0.000002 0.000000 0.000000 
0.147534 73.660576 -2.392437 -22.409622 -5.534020 -1.690268 0.000000 0.000000 0.000000 -92.370809 8.187669 31.370973 124.474515 -20.236300 0.232510 -29.808482 -3.774581 12.500936 0.000001 -0.000000 0.000001 0.000001 -0.000000 0.000001 0.000001 0.000000 0.000002 -109.309343 -4.722973 -36.199408 128.860179 23.360871 -1.622221 -24.627562 -0.040993 -0.762514 -0.000000 0.000001 -0.000003 -0.000000 0.000001 -0.000003 0.000001 0.000000 0.000000 7.517865 -0.985124 -0.434055 15.039631 -1.534571 -0.418302 15.039639 -1.534571 -0.418302 -17.769907 2.710620 0.790330 -16.597927 1.605600 1.335112 0.000000 -0.000000 -0.000000 0.000000 -0.000000 -0.000000 0.000000 -0.000000 -0.000000 -0.794088 -0.411285 37.037650 -53.107367 -25.119646 -13.105116 -14.758154 -28.996663 2.732929 11.472787 -2.333860 38.824663 -11.360194 -10.015402 28.397703 19.621129 23.755256 -10.341702 0.000000 -0.000001 -0.000001 -7.847214 -3.444973 -67.091227 -4.891843 2.725260 -36.316478 0.000000 0.000002 -0.000002 -10.129895 -3.870909 -67.774280 -1.764546 1.724218 -28.158828 0.000001 0.000001 -0.000001 -15.177575 7.295079 -70.201641 7.766212 -0.421191 -31.520049 -0.000000 0.000001 -0.000000 -16.484487 5.444050 -74.872581 8.341900 -0.189712 -18.882681 -0.000000 0.000001 -0.000000 0.000000 -0.000000 0.000004 9.273471 22.311025 -38.387897 -46.870910 23.501713 -2.942165 -21.212589 27.007473 1.920322 -0.431569 10.107006 -45.634837 15.333570 1.500913 -10.491450 -10.396763 -3.067645 -10.223945 -0.000001 -0.000000 -0.000000 0.919902 3.496454 64.452192 1.728565 9.563367 38.865955 -0.000002 -0.000001 0.000003 -6.652408 -3.924323 64.485687 9.406011 5.988765 38.253629 -0.000000 -0.000003 -0.000001 -5.546322 1.390160 64.784788 0.228590 -1.795845 39.151614 0.000000 0.000001 0.000001 -17.806353 -16.572303 61.043306 25.318987 3.856096 27.748759 -0.000000 -0.000001 -0.000002 -0.000000 0.000000 -0.000005 0.000001 -0.000000 -0.000000 0.000001 -0.000000 -0.000000 0.000001 -0.000000 -0.000000 0.000001 -0.000000 -0.000000 0.000001 -0.000000 0.000000 -0.000000 -0.000001 -0.000000 0.000001 -0.000000 -0.000000 0.000001 -0.000000 0.000000 -0.000000 -0.000001 -0.000000 0.000000 0.000001 -0.000000 0.000000 0.000001 -0.000000 0.000000 0.000000 0.000000 
0.129538 73.577927 -2.391504 -21.939435 -5.505896 -1.731633 -0.000000 0.000000 0.000000 -93.063896 7.978100 31.052919 124.597732 -19.795755 0.257953 -29.717415 -3.675583 12.373938 -0.000002 0.000000 -0.000000 -0.000002 0.000000 0.000000 0.000000 -0.000000 0.000000 -109.756352 -4.605195 -35.591453 128.879167 23.050739 -1.609495 -24.753056 -0.159459 -0.550111 0.000000 -0.000000 0.000000 0.000000 -0.000000 0.000000 0.000000 -0.000000 -0.000001 7.353505 -0.947201 -0.376778 14.710906 -1.463377 -0.331661 14.710904 -1.463383 -0.331661 -20.744661 2.780007 1.039819 -14.458341 1.885081 0.975407 -0.000002 0.000000 0.000000 -0.000002 0.000000 0.000000 -0.000002 0.000000 0.000000 -1.099284 0.158974 37.454206 -53.530477 -24.931224 -14.399212 -14.700104 -29.457906 3.027311 11.401995 -2.529863 36.882690 -11.360182 -10.015415 28.397707 19.621129 23.755243 -10.341700 0.000000 -0.000001 -0.000001 -7.847210 -3.444972 -67.091213 -4.891872 2.725290 -36.316485 -0.000001 0.000001 -0.000000 -10.129872 -3.870934 -67.774287 -1.764572 1.724064 -28.158806 -0.000002 0.000001 0.000000 -15.177575 7.295032 -70.201634 7.766216 -0.421196 -31.520056 -0.000000 -0.000000 -0.000000 -16.484481 5.443955 -74.872588 8.341834 -0.189591 -18.882690 -0.000002 -0.000000 -0.000000 -0.000000 0.000000 0.000002 8.958988 21.389436 -38.537136 -47.400843 23.753704 -1.536017 -20.640024 27.551687 1.343292 -0.735303 9.715915 -45.379036 15.333566 1.500902 -10.491460 -10.396762 -3.067644 -10.223942 -0.000000 0.000000 0.000000 0.919919 3.496446 64.452192 1.728603 9.563457 38.865935 -0.000000 -0.000001 0.000002 -6.652419 -3.924326 64.485715 9.406007 5.988767 38.253646 0.000001 -0.000002 0.000001 -5.546353 1.390161 64.784788 0.228681 -1.795820 39.151621 -0.000002 -0.000001 -0.000003 -17.806368 -16.572307 61.043327 25.319146 3.856167 27.748760 0.000002 -0.000000 0.000000 0.000000 -0.000000 -0.000000 0.000001 0.000000 0.000000 0.000001 0.000000 0.000000 0.000001 0.000000 0.000000 0.000001 0.000000 0.000000 0.000001 0.000000 0.000000 -0.000000 0.000001 -0.000000 0.000001 0.000000 0.000000 0.000001 0.000000 0.000000 -0.000000 0.000001 -0.000000 0.000000 0.000000 -0.000000 0.000000 0.000000 -0.000000 -0.000000 0.000000 0.000000 
